<svg width="61" height="14" viewBox="0 0 61 14" fill="none" xmlns="http://www.w3.org/2000/svg">
<g clip-path="url(#clip0_42_21787)">
<path d="M8.98059 9.72215C8.98059 8.92797 8.76094 8.16688 8.36557 7.51269C7.97397 6.85978 7.40664 6.31251 6.70753 5.94724L5.90549 5.52979V8.60469C5.90549 8.97124 5.71471 9.30978 5.40218 9.49433L4.38174 10.1001L4.08051 10.2783L1.38446 11.8794L0.407959 12.2141L2.89189 13.4996C3.51444 13.8229 4.16209 13.9705 4.79343 13.9705C6.98742 13.9705 8.98059 12.1849 8.98059 9.72088V9.72215Z" fill="#2C81FF"/>
<path d="M5.90667 8.60627V5.53136L4.75319 4.92936L3.75285 4.40881L1.09319 3.02409L1.01287 2.98209C0.810789 2.87645 0.569801 2.88281 0.373999 2.9999C0.154348 3.12845 0.0162823 3.36136 0.00498597 3.6159C0.00122054 3.64645 0.0012207 3.67063 0.0012207 3.6999V11.5424C0.0012207 11.8275 0.159369 12.0884 0.409143 12.217C0.547208 12.2883 0.710377 12.2832 0.844678 12.2043L1.38564 11.8835L4.08169 10.2824L4.38293 10.1043L5.40336 9.49845C5.71589 9.3139 5.90667 8.97663 5.90667 8.60881V8.60627Z" fill="#030E93"/>
<path d="M5.90674 5.52979V0.433789C5.90674 0.120699 5.57287 -0.0740286 5.30678 0.0837896L3.64748 1.06379L1.47984 2.34415L0.372803 2.99706C0.630107 2.90797 0.912515 2.92833 1.1535 3.05433L3.75165 4.40724L4.752 4.92779L5.90548 5.52979H5.90674Z" fill="#3EFFDA"/>
<path d="M18.9389 5.43601C18.3489 4.76782 17.6159 4.4331 16.7398 4.4331C15.8637 4.4331 15.1257 4.80346 14.6011 5.54291V2.41455H12.8439V11.4369H14.6011V10.5142C15.1257 11.2295 15.8386 11.5858 16.7398 11.5858C17.641 11.5858 18.3602 11.2524 18.9451 10.5829C19.5313 9.91473 19.8237 9.05691 19.8237 8.00946C19.8237 6.96201 19.5288 6.10546 18.9389 5.43601ZM17.5569 9.36746C17.2331 9.71746 16.8252 9.89182 16.3344 9.89182C15.8437 9.89182 15.4207 9.71746 15.0931 9.36746C14.7655 9.01873 14.6011 8.56692 14.6011 8.00946C14.6011 7.45201 14.7655 7.00019 15.0931 6.65146C15.4207 6.30273 15.8336 6.12837 16.3344 6.12837C16.8352 6.12837 17.2432 6.30273 17.5632 6.65146C17.882 7.00019 18.0427 7.45328 18.0427 8.00946C18.0427 8.56564 17.8808 9.01873 17.5569 9.36746Z" fill="white"/>
<path d="M29.1695 5.15601C28.7352 4.67492 28.1378 4.43311 27.3747 4.43311C26.4823 4.43311 25.7819 4.79456 25.2736 5.51747V4.58329H23.5164V11.4369H25.2736V7.83511C25.2736 6.69729 25.7819 6.12838 26.7973 6.12838C27.2479 6.12838 27.5717 6.2442 27.7688 6.47711C27.9646 6.71001 28.0637 7.05874 28.0637 7.52329V11.4369H29.8209V7.13765C29.8209 6.29892 29.6038 5.63838 29.1695 5.15601Z" fill="white"/>
<path d="M35.8632 2.41455V5.54291C35.3386 4.80346 34.6256 4.4331 33.7244 4.4331C32.8233 4.4331 32.1166 4.76782 31.5305 5.43601C30.9456 6.10546 30.6519 6.96328 30.6519 8.00946C30.6519 9.05564 30.9456 9.91473 31.5305 10.5829C32.1166 11.2524 32.8521 11.5858 33.737 11.5858C34.6219 11.5858 35.3473 11.2295 35.8632 10.5142V11.4369H37.6204V2.41455H35.8632ZM35.3712 9.36746C35.0436 9.71746 34.6294 9.89182 34.1299 9.89182C33.6303 9.89182 33.2312 9.71746 32.9073 9.36746C32.5835 9.01873 32.4216 8.56692 32.4216 8.00946C32.4216 7.45201 32.5823 7.00019 32.9011 6.65146C33.2211 6.30273 33.6303 6.12837 34.1299 6.12837C34.6294 6.12837 35.0436 6.30273 35.3712 6.65146C35.6988 7.00019 35.8632 7.45328 35.8632 8.00946C35.8632 8.56564 35.6988 9.01873 35.3712 9.36746Z" fill="white"/>
<path d="M43.3565 9.36747C43.0327 9.71747 42.626 9.89183 42.134 9.89183C41.642 9.89183 41.2202 9.71747 40.8926 9.36747C40.5651 9.01874 40.4006 8.56692 40.4006 8.00947C40.4006 7.45201 40.5651 7.0002 40.8926 6.65147C41.2202 6.30274 41.6344 6.12838 42.134 6.12838C42.6335 6.12838 43.044 6.30274 43.3628 6.65147C43.6828 7.0002 43.8422 7.45329 43.8422 8.00947C43.8422 8.56565 43.6803 9.01874 43.3565 9.36747ZM40.4006 13.9722V10.5142C40.9341 11.2295 41.647 11.5858 42.5394 11.5858C43.4318 11.5858 44.1598 11.2524 44.7459 10.5829C45.3308 9.91474 45.6245 9.05692 45.6245 8.00947C45.6245 6.96201 45.3296 6.10547 44.7397 5.43601C44.1498 4.76783 43.4155 4.43311 42.5394 4.43311C41.6633 4.43311 40.9253 4.80347 40.4006 5.54292V4.58329H38.6434V13.9722H40.4006Z" fill="white"/>
<path d="M51.4873 4.58329V5.54292C50.9627 4.80347 50.2498 4.43311 49.3486 4.43311C48.4474 4.43311 47.7407 4.76783 47.1558 5.43601C46.5697 6.10547 46.2772 6.96329 46.2772 8.00947C46.2772 9.05565 46.5672 9.91474 47.1495 10.5829C47.7307 11.2524 48.4687 11.5858 49.3611 11.5858C50.2535 11.5858 50.9589 11.2295 51.4748 10.5142V11.4369H53.232L53.2445 4.58329H51.4873ZM50.9953 9.36747C50.6677 9.71747 50.2548 9.89183 49.7552 9.89183C49.2557 9.89183 48.8553 9.71747 48.5315 9.36747C48.2076 9.01874 48.047 8.56692 48.047 8.00947C48.047 7.45201 48.2064 7.0002 48.5252 6.65147C48.8452 6.30274 49.2544 6.12838 49.7552 6.12838C50.256 6.12838 50.6677 6.30274 50.9953 6.65147C51.3229 7.0002 51.4873 7.45329 51.4873 8.00947C51.4873 8.56565 51.3229 9.01874 50.9953 9.36747Z" fill="white"/>
<path d="M59.1197 4.58301L57.4366 8.59464L55.7647 4.58301H53.8971L56.5028 10.5266L54.9878 13.9719H56.8567L61 4.58301H59.1197Z" fill="white"/>
<path d="M20.7274 4.58301V11.4366H22.4846V4.58301H20.7274Z" fill="white"/>
<path d="M22.8235 2.41455C22.8235 3.09673 22.2788 3.6491 21.606 3.6491C20.9333 3.6491 20.3885 3.09673 20.3885 2.41455H22.8235Z" fill="white"/>
</g>
<defs>
<clipPath id="clip0_42_21787">
<rect width="61" height="14" fill="white"/>
</clipPath>
</defs>
</svg>
