<?xml version="1.0" encoding="UTF-8"?>
<svg id="Layer_2" data-name="Layer 2" xmlns="http://www.w3.org/2000/svg" viewBox="0 0 840.97 189.58">
  <defs>
    <style>
      .cls-1 {
        fill: #030e93;
      }

      .cls-1, .cls-2, .cls-3, .cls-4 {
        stroke-width: 0px;
      }

      .cls-2 {
        fill: #2c81ff;
      }

      .cls-3 {
        fill: #3effda;
      }

      .cls-4 {
        fill: #030935;
      }
    </style>
  </defs>
  <g id="_Слой_1" data-name="Слой 1">
    <g>
      <g>
        <path class="cls-2" d="M123.81,131.81c0-10.8-3.02-21.15-8.47-30.04-5.4-8.88-13.22-16.32-22.86-21.28l-11.05-5.68v41.81c0,4.98-2.63,9.58-6.95,12.09l-14.08,8.24-4.16,2.43-37.16,21.77-13.46,4.55,34.25,17.48c8.57,4.39,17.51,6.41,26.21,6.41,30.24,0,57.72-24.28,57.72-57.77Z"/>
        <path class="cls-1" d="M81.43,116.62v-41.81l-15.91-8.19-13.79-7.08L15.06,40.72l-1.11-.57c-2.78-1.43-6.1-1.34-8.81.24h0C2.12,42.14.21,45.29.05,48.75v.03c-.05.39-.05.72-.05,1.11v106.63c0,3.88,2.18,7.42,5.63,9.18h0c1.9.97,4.16.9,6-.18l7.46-4.37,37.16-21.77,4.16-2.43,14.08-8.24c4.31-2.51,6.95-7.1,6.95-12.09Z"/>
        <path class="cls-3" d="M81.43,74.81V5.51c0-4.26-4.6-6.9-8.26-4.75l-22.88,13.33-29.88,17.41-15.26,8.88h0c3.54-1.22,7.43-.94,10.77.77l35.82,18.39,13.79,7.08,15.91,8.19Z"/>
      </g>
      <g>
        <path class="cls-4" d="M261.1,73.52c-8.13-9.08-18.24-13.64-30.32-13.64s-22.25,5.04-29.49,15.09v-42.53h-24.23v122.67h24.23v-12.55c7.23,9.72,17.06,14.57,29.49,14.57s22.34-4.53,30.4-13.64c8.08-9.08,12.11-20.75,12.11-34.99s-4.07-25.89-12.2-34.99ZM242.05,126.98c-4.46,4.76-10.09,7.13-16.85,7.13s-12.6-2.37-17.11-7.13c-4.52-4.74-6.78-10.88-6.78-18.46s2.27-13.72,6.78-18.46c4.52-4.74,10.21-7.11,17.11-7.11s12.53,2.37,16.94,7.11c4.4,4.74,6.61,10.9,6.61,18.46s-2.23,13.72-6.7,18.46Z"/>
        <path class="cls-4" d="M402.14,69.72c-5.99-6.54-14.22-9.83-24.74-9.83-12.3,0-21.96,4.91-28.97,14.74v-12.7h-24.23v93.18h24.23v-48.97c0-15.47,7.01-23.2,21.01-23.2,6.21,0,10.68,1.57,13.39,4.74,2.7,3.17,4.07,7.91,4.07,14.22v53.21h24.23v-58.45c0-11.4-2.99-20.38-8.98-26.94Z"/>
        <path class="cls-4" d="M494.42,32.44v42.53c-7.23-10.05-17.06-15.09-29.49-15.09s-22.17,4.55-30.25,13.64c-8.06,9.1-12.11,20.76-12.11,34.99s4.05,25.9,12.11,34.99c8.08,9.1,18.22,13.64,30.42,13.64s22.2-4.85,29.31-14.57v12.55h24.23V32.44h-24.23ZM487.64,126.98c-4.52,4.76-10.23,7.13-17.11,7.13s-12.39-2.37-16.85-7.13c-4.46-4.74-6.7-10.88-6.7-18.46s2.21-13.72,6.61-18.46c4.41-4.74,10.05-7.11,16.94-7.11s12.6,2.37,17.11,7.11c4.52,4.74,6.78,10.9,6.78,18.46s-2.27,13.72-6.78,18.46Z"/>
        <path class="cls-4" d="M597.74,126.98c-4.46,4.76-10.07,7.13-16.85,7.13s-12.6-2.37-17.11-7.13c-4.52-4.74-6.78-10.88-6.78-18.46s2.27-13.72,6.78-18.46c4.52-4.74,10.23-7.11,17.11-7.11s12.55,2.37,16.94,7.11c4.41,4.74,6.61,10.9,6.61,18.46s-2.23,13.72-6.7,18.46ZM556.99,189.58v-47.01c7.35,9.72,17.18,14.57,29.49,14.57s22.34-4.53,30.42-13.64c8.06-9.08,12.11-20.75,12.11-34.99s-4.07-25.89-12.2-34.99c-8.13-9.08-18.26-13.64-30.33-13.64s-22.25,5.04-29.49,15.09v-13.05h-24.23v127.65h24.23Z"/>
        <path class="cls-4" d="M709.83,61.93v13.05c-7.23-10.05-17.06-15.09-29.49-15.09s-22.17,4.55-30.23,13.64c-8.08,9.1-12.11,20.76-12.11,34.99s4,25.9,12.03,34.99c8.01,9.1,18.19,13.64,30.49,13.64s22.03-4.85,29.14-14.57v12.55h24.23l.17-93.18h-24.23ZM703.05,126.98c-4.52,4.76-10.21,7.13-17.1,7.13s-12.41-2.37-16.87-7.13c-4.46-4.74-6.68-10.88-6.68-18.46s2.2-13.72,6.59-18.46c4.41-4.74,10.05-7.11,16.96-7.11s12.58,2.37,17.1,7.11c4.52,4.74,6.78,10.9,6.78,18.46s-2.27,13.72-6.78,18.46Z"/>
        <path class="cls-4" d="M815.05,61.93l-23.2,54.54-23.05-54.54h-25.75l35.92,80.81-20.89,46.84h25.77l57.12-127.65h-25.92Z"/>
        <g>
          <path class="cls-4" d="M285.76,61.93v93.18h24.23V61.93h-24.23Z"/>
          <path class="cls-4" d="M314.66,32.44c0,9.27-7.51,16.78-16.78,16.78s-16.78-7.51-16.78-16.78h33.57Z"/>
        </g>
      </g>
    </g>
  </g>
</svg>