<svg width="271" height="31" viewBox="0 0 271 31" fill="none" xmlns="http://www.w3.org/2000/svg">
<mask id="mask0_75_825" style="mask-type:luminance" maskUnits="userSpaceOnUse" x="135" y="0" width="136" height="31">
<path d="M270.81 0H135V31H270.81V0Z" fill="white"/>
</mask>
<g mask="url(#mask0_75_825)">
<path d="M154.994 21.5282C154.994 19.7697 154.505 18.0844 153.625 16.6358C152.753 15.1901 151.49 13.9783 149.933 13.1695L148.148 12.2451V19.0538C148.148 19.8655 147.723 20.6151 147.027 21.0237L144.755 22.3651L144.085 22.7597L138.082 26.305L135.908 27.0461L141.438 29.8926C142.824 30.6084 144.266 30.9353 145.672 30.9353C150.557 30.9353 154.994 26.9814 154.994 21.5254V21.5282Z" fill="#2C81FF"/>
<path d="M148.151 19.0578V12.2491L145.583 10.9161L143.356 9.76341L137.434 6.69725L137.255 6.60425C136.805 6.37033 136.269 6.38441 135.833 6.64368C135.344 6.92833 135.036 7.44406 135.011 8.00768C135.003 8.07533 135.003 8.12887 135.003 8.19368V25.5592C135.003 26.1905 135.355 26.7682 135.911 27.053C136.219 27.2109 136.582 27.1996 136.881 27.0249L138.085 26.3145L144.088 22.7692L144.758 22.3749L147.03 21.0333C147.726 20.6247 148.151 19.8779 148.151 19.0634V19.0578Z" fill="#030E93"/>
<path d="M148.151 12.2454V0.961405C148.151 0.268134 147.407 -0.163049 146.815 0.186406L143.121 2.35641L138.295 5.19149L135.83 6.63722C136.403 6.43995 137.032 6.48503 137.568 6.76403L143.353 9.75976L145.58 10.9124L148.148 12.2454H148.151Z" fill="#3EFFDA"/>
<path d="M177.166 12.038C175.852 10.5585 174.22 9.8173 172.269 9.8173C170.319 9.8173 168.676 10.6374 167.508 12.2747V5.34766H163.596V25.3257H167.508V23.2826C168.676 24.8665 170.263 25.6554 172.269 25.6554C174.276 25.6554 175.877 24.9172 177.179 23.4347C178.484 21.9552 179.135 20.0557 179.135 17.7364C179.135 15.417 178.479 13.5204 177.166 12.038ZM174.089 20.7434C173.368 21.5184 172.46 21.9045 171.367 21.9045C170.274 21.9045 169.333 21.5184 168.603 20.7434C167.874 19.9712 167.508 18.9708 167.508 17.7364C167.508 16.502 167.874 15.5016 168.603 14.7294C169.333 13.9572 170.252 13.5711 171.367 13.5711C172.482 13.5711 173.39 13.9572 174.103 14.7294C174.812 15.5016 175.17 16.5048 175.17 17.7364C175.17 18.9679 174.81 19.9712 174.089 20.7434Z" fill="white"/>
<path d="M199.943 11.4181C198.976 10.3528 197.646 9.81738 195.947 9.81738C193.961 9.81738 192.401 10.6177 191.27 12.2185V10.1499H187.357V25.3258H191.27V17.3504C191.27 14.8309 192.401 13.5712 194.662 13.5712C195.665 13.5712 196.386 13.8277 196.825 14.3434C197.261 14.8591 197.481 15.6313 197.481 16.6599V25.3258H201.394V15.806C201.394 13.9488 200.91 12.4862 199.943 11.4181Z" fill="white"/>
<path d="M214.846 5.34766V12.2747C213.678 10.6374 212.09 9.8173 210.084 9.8173C208.078 9.8173 206.504 10.5585 205.199 12.038C203.897 13.5204 203.243 15.4198 203.243 17.7364C203.243 20.0529 203.897 21.9552 205.199 23.4347C206.504 24.9172 208.142 25.6554 210.112 25.6554C212.082 25.6554 213.697 24.8665 214.846 23.2826V25.3257H218.758V5.34766H214.846ZM213.75 20.7434C213.021 21.5184 212.099 21.9045 210.987 21.9045C209.874 21.9045 208.986 21.5184 208.265 20.7434C207.544 19.9712 207.183 18.9708 207.183 17.7364C207.183 16.502 207.541 15.5016 208.251 14.7294C208.963 13.9572 209.874 13.5711 210.987 13.5711C212.099 13.5711 213.021 13.9572 213.75 14.7294C214.48 15.5016 214.846 16.5048 214.846 17.7364C214.846 18.9679 214.48 19.9712 213.75 20.7434Z" fill="white"/>
<path d="M231.529 20.7435C230.808 21.5185 229.903 21.9045 228.808 21.9045C227.712 21.9045 226.773 21.5185 226.044 20.7435C225.315 19.9713 224.948 18.9708 224.948 17.7365C224.948 16.5021 225.315 15.5017 226.044 14.7295C226.773 13.9573 227.695 13.5712 228.808 13.5712C229.92 13.5712 230.834 13.9573 231.543 14.7295C232.256 15.5017 232.611 16.5049 232.611 17.7365C232.611 18.968 232.25 19.9713 231.529 20.7435ZM224.948 30.9397V23.2827C226.136 24.8665 227.723 25.6555 229.71 25.6555C231.697 25.6555 233.318 24.9172 234.623 23.4348C235.925 21.9553 236.579 20.0558 236.579 17.7365C236.579 15.4171 235.922 13.5205 234.609 12.0381C233.296 10.5585 231.661 9.81738 229.71 9.81738C227.76 9.81738 226.117 10.6375 224.948 12.2748V10.1499H221.036V30.9397H224.948Z" fill="white"/>
<path d="M249.63 10.1499V12.2748C248.462 10.6375 246.875 9.81738 244.868 9.81738C242.862 9.81738 241.289 10.5585 239.986 12.0381C238.681 13.5205 238.03 15.4199 238.03 17.7365C238.03 20.053 238.676 21.9553 239.972 23.4348C241.266 24.9172 242.909 25.6555 244.896 25.6555C246.883 25.6555 248.454 24.8665 249.602 23.2827V25.3258H253.514L253.542 10.1499H249.63ZM248.535 20.7435C247.805 21.5185 246.886 21.9045 245.774 21.9045C244.662 21.9045 243.77 21.5185 243.049 20.7435C242.328 19.9713 241.971 18.9708 241.971 17.7365C241.971 16.5021 242.325 15.5017 243.035 14.7295C243.748 13.9573 244.659 13.5712 245.774 13.5712C246.889 13.5712 247.805 13.9573 248.535 14.7295C249.264 15.5017 249.63 16.5049 249.63 17.7365C249.63 18.968 249.264 19.9713 248.535 20.7435Z" fill="white"/>
<path d="M266.623 10.1494L262.875 19.0323L259.153 10.1494H254.995L260.796 23.3102L257.423 30.9391H261.584L270.809 10.1494H266.623Z" fill="white"/>
<path d="M181.146 10.1494V25.3252H185.059V10.1494H181.146Z" fill="white"/>
<path d="M185.814 5.34766C185.814 6.8582 184.601 8.0813 183.103 8.0813C181.606 8.0813 180.393 6.8582 180.393 5.34766H185.814Z" fill="white"/>
</g>
<path d="M1.872 24V7.2H7.152C8.448 7.2 9.52 7.416 10.368 7.848C11.216 8.264 11.84 8.84 12.24 9.576C12.64 10.296 12.84 11.12 12.84 12.048C12.84 12.96 12.64 13.784 12.24 14.52C11.84 15.256 11.216 15.84 10.368 16.272C9.536 16.704 8.464 16.92 7.152 16.92H3.552V24H1.872ZM3.552 15.48H7.128C8.568 15.48 9.592 15.176 10.2 14.568C10.808 13.944 11.112 13.104 11.112 12.048C11.112 10.96 10.808 10.12 10.2 9.528C9.592 8.92 8.568 8.616 7.128 8.616H3.552V15.48ZM20.0867 24.288C18.9827 24.288 17.9827 24.032 17.0867 23.52C16.2067 22.992 15.5107 22.256 14.9987 21.312C14.4867 20.352 14.2307 19.24 14.2307 17.976C14.2307 16.664 14.4867 15.536 14.9987 14.592C15.5267 13.648 16.2387 12.92 17.1347 12.408C18.0307 11.88 19.0307 11.616 20.1347 11.616C21.2867 11.616 22.3027 11.88 23.1827 12.408C24.0627 12.92 24.7587 13.648 25.2707 14.592C25.7827 15.536 26.0387 16.664 26.0387 17.976C26.0387 19.24 25.7747 20.352 25.2467 21.312C24.7347 22.256 24.0307 22.992 23.1347 23.52C22.2547 24.032 21.2387 24.288 20.0867 24.288ZM20.1107 22.848C20.8627 22.848 21.5507 22.664 22.1747 22.296C22.8147 21.928 23.3267 21.384 23.7107 20.664C24.1107 19.928 24.3107 19.024 24.3107 17.952C24.3107 16.864 24.1187 15.96 23.7347 15.24C23.3507 14.52 22.8387 13.984 22.1987 13.632C21.5747 13.264 20.8867 13.08 20.1347 13.08C19.4147 13.08 18.7347 13.264 18.0947 13.632C17.4547 14 16.9347 14.544 16.5347 15.264C16.1507 15.968 15.9587 16.864 15.9587 17.952C15.9587 19.024 16.1507 19.928 16.5347 20.664C16.9187 21.384 17.4227 21.928 18.0467 22.296C18.6867 22.664 19.3747 22.848 20.1107 22.848ZM30.9422 24L27.3902 11.904H29.0942L31.9742 22.248H31.6382L34.7582 11.904H36.6782L39.7982 22.248H39.4622L42.3422 11.904H44.0462L40.4942 24H38.7902L35.5502 13.176H35.8862L32.6462 24H30.9422ZM51.1146 24.288C49.9946 24.288 49.0026 24.024 48.1386 23.496C47.2906 22.968 46.6186 22.232 46.1226 21.288C45.6426 20.328 45.4026 19.208 45.4026 17.928C45.4026 16.648 45.6426 15.536 46.1226 14.592C46.6026 13.648 47.2746 12.92 48.1386 12.408C49.0186 11.88 50.0266 11.616 51.1626 11.616C52.3306 11.616 53.3146 11.88 54.1146 12.408C54.9306 12.936 55.5466 13.624 55.9626 14.472C56.3946 15.32 56.6106 16.248 56.6106 17.256C56.6106 17.416 56.6106 17.584 56.6106 17.76C56.6106 17.92 56.6026 18.112 56.5866 18.336H46.6746V16.92H54.9786C54.9466 15.688 54.5626 14.736 53.8266 14.064C53.1066 13.392 52.1946 13.056 51.0906 13.056C50.3706 13.056 49.6986 13.224 49.0746 13.56C48.4666 13.88 47.9706 14.36 47.5866 15C47.2186 15.624 47.0346 16.416 47.0346 17.376V18C47.0346 19.088 47.2266 19.992 47.6106 20.712C47.9946 21.432 48.4986 21.968 49.1226 22.32C49.7626 22.672 50.4266 22.848 51.1146 22.848C52.0266 22.848 52.7786 22.648 53.3706 22.248C53.9626 21.832 54.3866 21.264 54.6426 20.544H56.2986C56.0906 21.248 55.7546 21.888 55.2906 22.464C54.8426 23.04 54.2666 23.488 53.5626 23.808C52.8586 24.128 52.0426 24.288 51.1146 24.288ZM59.3603 24V11.904H60.8963L61.0163 14.232C61.2723 13.672 61.6163 13.2 62.0483 12.816C62.4803 12.432 63.0003 12.136 63.6083 11.928C64.2163 11.72 64.9043 11.616 65.6723 11.616V13.368H65.0243C64.5123 13.368 64.0163 13.44 63.5363 13.584C63.0563 13.712 62.6323 13.936 62.2643 14.256C61.8963 14.576 61.6003 15.008 61.3763 15.552C61.1523 16.096 61.0403 16.776 61.0403 17.592V24H59.3603ZM72.7005 24.288C71.5805 24.288 70.5885 24.024 69.7245 23.496C68.8765 22.968 68.2045 22.232 67.7085 21.288C67.2285 20.328 66.9885 19.208 66.9885 17.928C66.9885 16.648 67.2285 15.536 67.7085 14.592C68.1885 13.648 68.8605 12.92 69.7245 12.408C70.6045 11.88 71.6125 11.616 72.7485 11.616C73.9165 11.616 74.9005 11.88 75.7005 12.408C76.5165 12.936 77.1325 13.624 77.5485 14.472C77.9805 15.32 78.1965 16.248 78.1965 17.256C78.1965 17.416 78.1965 17.584 78.1965 17.76C78.1965 17.92 78.1885 18.112 78.1725 18.336H68.2605V16.92H76.5645C76.5325 15.688 76.1485 14.736 75.4125 14.064C74.6925 13.392 73.7805 13.056 72.6765 13.056C71.9565 13.056 71.2845 13.224 70.6605 13.56C70.0525 13.88 69.5565 14.36 69.1725 15C68.8045 15.624 68.6205 16.416 68.6205 17.376V18C68.6205 19.088 68.8125 19.992 69.1965 20.712C69.5805 21.432 70.0845 21.968 70.7085 22.32C71.3485 22.672 72.0125 22.848 72.7005 22.848C73.6125 22.848 74.3645 22.648 74.9565 22.248C75.5485 21.832 75.9725 21.264 76.2285 20.544H77.8845C77.6765 21.248 77.3405 21.888 76.8765 22.464C76.4285 23.04 75.8525 23.488 75.1485 23.808C74.4445 24.128 73.6285 24.288 72.7005 24.288ZM86.2262 24.288C85.0582 24.288 84.0342 24.016 83.1542 23.472C82.2902 22.912 81.6182 22.152 81.1382 21.192C80.6582 20.232 80.4182 19.144 80.4182 17.928C80.4182 16.712 80.6582 15.632 81.1382 14.688C81.6182 13.728 82.2982 12.976 83.1782 12.432C84.0582 11.888 85.0822 11.616 86.2502 11.616C87.2742 11.616 88.1702 11.84 88.9382 12.288C89.7222 12.72 90.3222 13.336 90.7382 14.136V6.72H92.4182V24H90.8822L90.7382 21.816C90.4822 22.232 90.1462 22.632 89.7302 23.016C89.3302 23.4 88.8342 23.712 88.2422 23.952C87.6662 24.176 86.9942 24.288 86.2262 24.288ZM86.3702 22.824C87.2182 22.824 87.9542 22.624 88.5782 22.224C89.2182 21.824 89.7142 21.256 90.0662 20.52C90.4342 19.784 90.6182 18.928 90.6182 17.952C90.6182 16.976 90.4342 16.12 90.0662 15.384C89.7142 14.648 89.2182 14.08 88.5782 13.68C87.9542 13.28 87.2182 13.08 86.3702 13.08C85.5382 13.08 84.8022 13.28 84.1622 13.68C83.5222 14.08 83.0182 14.648 82.6502 15.384C82.2982 16.104 82.1222 16.96 82.1222 17.952C82.1222 18.944 82.3062 19.808 82.6742 20.544C83.0422 21.264 83.5462 21.824 84.1862 22.224C84.8262 22.624 85.5542 22.824 86.3702 22.824ZM108.606 24.288C107.902 24.288 107.254 24.184 106.662 23.976C106.086 23.752 105.582 23.456 105.15 23.088C104.718 22.704 104.374 22.272 104.118 21.792L103.974 24H102.438V6.72H104.118V14.088C104.518 13.4 105.094 12.816 105.846 12.336C106.598 11.856 107.518 11.616 108.606 11.616C109.79 11.616 110.822 11.896 111.702 12.456C112.582 13 113.254 13.752 113.718 14.712C114.198 15.656 114.438 16.736 114.438 17.952C114.438 19.168 114.198 20.256 113.718 21.216C113.238 22.176 112.558 22.928 111.678 23.472C110.814 24.016 109.79 24.288 108.606 24.288ZM108.486 22.824C109.334 22.824 110.07 22.624 110.694 22.224C111.318 21.824 111.814 21.256 112.182 20.52C112.55 19.784 112.734 18.928 112.734 17.952C112.734 16.96 112.55 16.104 112.182 15.384C111.814 14.648 111.31 14.08 110.67 13.68C110.046 13.28 109.318 13.08 108.486 13.08C107.654 13.08 106.91 13.28 106.254 13.68C105.614 14.08 105.11 14.648 104.742 15.384C104.39 16.12 104.214 16.976 104.214 17.952C104.214 18.944 104.39 19.808 104.742 20.544C105.11 21.264 105.614 21.824 106.254 22.224C106.91 22.624 107.654 22.824 108.486 22.824ZM117.655 29.28L120.631 22.656H119.983L115.207 11.904H117.031L121.159 21.504L125.503 11.904H127.231L119.407 29.28H117.655Z" fill="white"/>
</svg>
