<svg width="33" height="38" viewBox="0 0 33 38" fill="none" xmlns="http://www.w3.org/2000/svg">
<path d="M16.4261 2.36707L30.9997 10.7852V27.6216L23.3185 32.6199L16.689 36.5659H14.0596L1.06348 29.2L1.8523 10.7852L16.4261 2.36707Z" fill="#2D374B"/>
<path d="M30.6545 24.429L30.6581 26.7492C30.6503 26.9081 30.6093 27.0628 30.5375 27.2049C30.4657 27.3459 30.365 27.4711 30.2418 27.5711L27.6972 29.0453L20.6631 17.6629L23.3679 13.075L30.6545 24.429Z" fill="#28A0F0"/>
<path d="M21.6959 32.5252L16.6182 24.5531L19.7181 19.2907L26.3863 29.8061L21.6959 32.5252Z" fill="#28A0F0"/>
<path d="M0.125977 28.6634L3.71628 30.7332L15.6681 11.5566L13.6398 11.505C11.9115 11.4798 10.0497 11.9291 9.19534 13.3255L2.4083 23.8503L0.125977 27.3596V28.6634Z" fill="white"/>
<path d="M17.2201 11.5765L22.5658 11.5565L9.35246 33.9804L5.125 31.5444L17.2201 11.5765Z" fill="white"/>
<path d="M32.9101 11.5292C32.8857 10.9778 32.7274 10.4401 32.4489 9.96233C32.1705 9.48565 31.7802 9.08367 31.3117 8.79114L18.0215 1.14428C17.5471 0.910674 17.0255 0.789673 16.4968 0.789673C15.9682 0.789673 15.4466 0.910674 14.9721 1.14428C14.8612 1.20005 2.04754 8.63541 2.04754 8.63541C1.86958 8.72065 1.6993 8.82166 1.53869 8.93636C1.12262 9.2331 0.779003 9.61928 0.533626 10.0675C0.288249 10.5148 0.147523 11.0125 0.12207 11.5229V27.3596L2.4044 23.8492L2.38673 11.6312C2.39746 11.4629 2.4451 11.2998 2.5264 11.1535C2.6076 11.0062 2.72045 10.8799 2.85666 10.781C2.91692 10.7379 15.9493 3.19095 15.9908 3.16991C16.1468 3.09414 16.3179 3.05415 16.4914 3.0531C16.665 3.0531 16.8364 3.09099 16.9931 3.1657L30.1116 10.7147C30.2644 10.8126 30.3915 10.9441 30.4824 11.1009C30.5733 11.2577 30.6251 11.4334 30.6337 11.6144V26.7513C30.6305 26.9081 30.5938 27.0628 30.5262 27.2038C30.4585 27.3459 30.3615 27.4711 30.2415 27.5721L27.6968 29.0474L26.3852 29.8082L21.6947 32.5273L16.9378 35.2863C16.6748 35.3789 16.3871 35.3726 16.128 35.2695L10.5001 32.0316L9.35067 33.9815L14.4084 36.8952C14.5757 36.99 14.7248 37.0752 14.847 37.1436C15.0364 37.2488 15.1655 37.3204 15.2109 37.3425C15.634 37.5287 16.0915 37.6224 16.5535 37.6192C16.9771 37.6192 17.3972 37.5403 17.7917 37.3856L31.6079 29.381C31.9977 29.0779 32.3163 28.6928 32.5411 28.2529C32.7661 27.8131 32.8918 27.329 32.9096 26.8355L32.9101 11.5292Z" fill="#96BEDC"/>
</svg>
