<svg width="33" height="33" viewBox="0 0 33 33" fill="none" xmlns="http://www.w3.org/2000/svg">
<path fill-rule="evenodd" clip-rule="evenodd" d="M16.6666 0.5C25.5032 0.5 32.6666 7.66341 32.6666 16.5C32.6666 25.3365 25.5032 32.5 16.6666 32.5C7.83004 32.5 0.666626 25.3365 0.666626 16.5C0.666626 7.66341 7.83004 0.5 16.6666 0.5Z" fill="#2775CA"/>
<path fill-rule="evenodd" clip-rule="evenodd" d="M20.3225 5.2337C19.9617 5.11846 19.6665 5.33259 19.6665 5.71139V6.64297C19.6665 6.89696 19.858 7.18601 20.0966 7.27342C23.9261 8.67609 26.6666 12.3571 26.6666 16.6667C26.6666 20.9761 23.9261 24.6571 20.0966 26.0599C19.8349 26.1556 19.6665 26.4119 19.6665 26.6903V27.6219C19.6665 28.0006 19.9617 28.2148 20.3225 28.0995C25.1621 26.5532 28.6666 22.0193 28.6666 16.6667C28.6666 11.3141 25.1621 6.78 20.3225 5.2337Z" fill="white"/>
<path fill-rule="evenodd" clip-rule="evenodd" d="M13.6667 5.71139C13.6667 5.33259 13.3716 5.11846 13.0107 5.2337C8.17113 6.78 4.66663 11.314 4.66663 16.6667C4.66663 22.0193 8.17113 26.5532 13.0107 28.0995C13.3716 28.2148 13.6667 28.0006 13.6667 27.6219V26.6903C13.6667 26.4364 13.4752 26.1473 13.2367 26.0599C9.40714 24.6571 6.66663 20.9761 6.66663 16.6667C6.66663 12.3572 9.40714 8.67609 13.2367 7.27342C13.4752 7.18601 13.6667 6.89696 13.6667 6.64297V5.71139Z" fill="white"/>
<path d="M20.7583 19.7891L19.843 19.3803C19.6417 19.2903 19.4038 19.3746 19.3064 19.5725C18.8744 20.4492 18.1563 21.008 17.208 21.008C16.3492 21.008 15.6605 20.5875 15.1328 19.7378C14.9264 19.409 14.7624 19.0419 14.6375 18.64H17.0953C17.2512 18.64 17.3938 18.5521 17.464 18.4131L18.0505 17.6215C18.189 17.3469 17.9896 17.0226 17.6818 17.0226H14.3609C14.3514 16.8523 14.3457 16.6787 14.3457 16.4998C14.3438 16.3224 14.3488 16.1485 14.3581 15.9775H17.0953C17.2512 15.9775 17.3938 15.8899 17.464 15.7507L18.0505 14.9593C18.189 14.6847 17.9896 14.3601 17.6818 14.3601H14.6346C15.0802 12.907 16.0109 11.955 17.208 11.9737C18.1202 11.9737 18.8283 12.4731 19.2827 13.2911C19.3845 13.4745 19.6135 13.5447 19.8055 13.46L20.7254 13.0539C20.9455 12.9567 21.0392 12.6905 20.9226 12.48C20.0734 10.9462 18.8352 10.1758 17.208 10.1758C15.7231 10.1758 14.5334 10.7661 13.63 11.9379C13.102 12.6281 12.7344 13.4378 12.5162 14.3601H11.1798C11.0241 14.3601 10.8815 14.448 10.8113 14.587L10.2248 15.3784C10.0861 15.653 10.2857 15.9775 10.5933 15.9775H12.2955C12.2872 16.1495 12.2793 16.3217 12.2793 16.4998C12.2771 16.6765 12.2814 16.8504 12.2888 17.0226H11.1798C11.0241 17.0226 10.8815 17.1102 10.8113 17.2494L10.2248 18.0408C10.0861 18.3155 10.2857 18.64 10.5933 18.64H12.5123C13.1194 21.1484 14.8665 22.8592 17.208 22.8236C18.8703 22.8236 20.1233 21.9974 20.9599 20.3518C21.0664 20.1423 20.9728 19.8851 20.7583 19.7891Z" fill="white"/>
</svg>
