<svg width="60" height="58" viewBox="0 0 60 58" fill="none" xmlns="http://www.w3.org/2000/svg">
<g filter="url(#filter0_d_16_1726)">
<path d="M30 56.25C45.533 56.25 58.125 43.658 58.125 28.125C58.125 12.592 45.533 0 30 0C14.467 0 1.875 12.592 1.875 28.125C1.875 43.658 14.467 56.25 30 56.25Z" fill="black"/>
</g>
<path d="M30 56.25C45.533 56.25 58.125 43.658 58.125 28.125C58.125 12.592 45.533 0 30 0C14.467 0 1.875 12.592 1.875 28.125C1.875 43.658 14.467 56.25 30 56.25Z" fill="#26A17B"/>
<path style="mix-blend-mode:soft-light" d="M30 56.25C45.533 56.25 58.125 43.658 58.125 28.125C58.125 12.592 45.533 0 30 0C14.467 0 1.875 12.592 1.875 28.125C1.875 43.658 14.467 56.25 30 56.25Z" fill="url(#paint0_linear_16_1726)"/>
<path d="M30 55.3125C45.0152 55.3125 57.1875 43.1402 57.1875 28.125C57.1875 13.1098 45.0152 0.9375 30 0.9375C14.9848 0.9375 2.8125 13.1098 2.8125 28.125C2.8125 43.1402 14.9848 55.3125 30 55.3125Z" stroke="black" stroke-opacity="0.097"/>
<g filter="url(#filter1_d_16_1726)">
<path d="M33.6038 30.7181V30.7144C33.3975 30.7294 32.3344 30.7931 29.9625 30.7931C28.0687 30.7931 26.7356 30.7369 26.2669 30.7144V30.72C18.9769 30.3994 13.5356 29.13 13.5356 27.6113C13.5356 26.0944 18.9769 24.825 26.2669 24.4988V29.4563C26.7431 29.49 28.1081 29.5706 29.9944 29.5706C32.2575 29.5706 33.3919 29.4769 33.6038 29.4581V24.5025C40.8787 24.8269 46.3069 26.0963 46.3069 27.6113C46.3069 29.13 40.8787 30.3956 33.6038 30.7181ZM33.6038 23.9869V19.5506H43.755V12.7856H16.1156V19.5506H26.2669V23.985C18.0169 24.3638 11.8125 25.9988 11.8125 27.9563C11.8125 29.9138 18.0169 31.5469 26.2669 31.9275V46.1438H33.6038V31.9238C41.8406 31.545 48.03 29.9119 48.03 27.9563C48.03 26.0006 41.8406 24.3675 33.6038 23.9869Z" fill="black"/>
</g>
<path d="M33.6038 30.7181V30.7144C33.3975 30.7294 32.3344 30.7931 29.9625 30.7931C28.0687 30.7931 26.7356 30.7369 26.2669 30.7144V30.72C18.9769 30.3994 13.5356 29.13 13.5356 27.6113C13.5356 26.0944 18.9769 24.825 26.2669 24.4988V29.4563C26.7431 29.49 28.1081 29.5706 29.9944 29.5706C32.2575 29.5706 33.3919 29.4769 33.6038 29.4581V24.5025C40.8787 24.8269 46.3069 26.0963 46.3069 27.6113C46.3069 29.13 40.8787 30.3956 33.6038 30.7181ZM33.6038 23.9869V19.5506H43.755V12.7856H16.1156V19.5506H26.2669V23.985C18.0169 24.3638 11.8125 25.9988 11.8125 27.9563C11.8125 29.9138 18.0169 31.5469 26.2669 31.9275V46.1438H33.6038V31.9238C41.8406 31.545 48.03 29.9119 48.03 27.9563C48.03 26.0006 41.8406 24.3675 33.6038 23.9869Z" fill="white"/>
<defs>
<filter id="filter0_d_16_1726" x="0.875" y="-0.5" width="58.25" height="58.25" filterUnits="userSpaceOnUse" color-interpolation-filters="sRGB">
<feFlood flood-opacity="0" result="BackgroundImageFix"/>
<feColorMatrix in="SourceAlpha" type="matrix" values="0 0 0 0 0 0 0 0 0 0 0 0 0 0 0 0 0 0 127 0" result="hardAlpha"/>
<feOffset dy="0.5"/>
<feGaussianBlur stdDeviation="0.5"/>
<feComposite in2="hardAlpha" operator="out"/>
<feColorMatrix type="matrix" values="0 0 0 0 0 0 0 0 0 0 0 0 0 0 0 0 0 0 0.199474 0"/>
<feBlend mode="normal" in2="BackgroundImageFix" result="effect1_dropShadow_16_1726"/>
<feBlend mode="normal" in="SourceGraphic" in2="effect1_dropShadow_16_1726" result="shape"/>
</filter>
<filter id="filter1_d_16_1726" x="10.8125" y="12.2856" width="38.2173" height="35.3579" filterUnits="userSpaceOnUse" color-interpolation-filters="sRGB">
<feFlood flood-opacity="0" result="BackgroundImageFix"/>
<feColorMatrix in="SourceAlpha" type="matrix" values="0 0 0 0 0 0 0 0 0 0 0 0 0 0 0 0 0 0 127 0" result="hardAlpha"/>
<feOffset dy="0.5"/>
<feGaussianBlur stdDeviation="0.5"/>
<feColorMatrix type="matrix" values="0 0 0 0 0 0 0 0 0 0 0 0 0 0 0 0 0 0 0.204257 0"/>
<feBlend mode="normal" in2="BackgroundImageFix" result="effect1_dropShadow_16_1726"/>
<feBlend mode="normal" in="SourceGraphic" in2="effect1_dropShadow_16_1726" result="shape"/>
</filter>
<linearGradient id="paint0_linear_16_1726" x1="2814.38" y1="0" x2="2814.38" y2="5625" gradientUnits="userSpaceOnUse">
<stop stop-color="white" stop-opacity="0.5"/>
<stop offset="1" stop-opacity="0.5"/>
</linearGradient>
</defs>
</svg>
