<svg width="37" height="37" viewBox="0 0 37 37" fill="none" xmlns="http://www.w3.org/2000/svg">
<path d="M18.4059 36.8295C28.5714 36.8295 36.8118 28.585 36.8118 18.4148C36.8118 8.24456 28.5714 0 18.4059 0C8.24037 0 0 8.24456 0 18.4148C0 28.585 8.24037 36.8295 18.4059 36.8295Z" fill="#E84142"/>
<path fill-rule="evenodd" clip-rule="evenodd" d="M13.191 25.7428H9.61904C8.86839 25.7428 8.49765 25.7428 8.27152 25.5986C8.0274 25.4397 7.87816 25.1777 7.86007 24.8883C7.8465 24.6211 8.03193 24.2949 8.40267 23.6435L17.2226 8.08985C17.5978 7.43007 17.7878 7.09968 18.0274 6.97762C18.2852 6.84608 18.5926 6.84608 18.8504 6.97762C19.09 7.09968 19.2799 7.43007 19.6552 8.08985L21.4683 11.2572L21.4776 11.273C21.8829 11.9812 22.0884 12.341 22.1783 12.7178C22.2777 13.1292 22.2777 13.5638 22.1783 13.9752C22.0878 14.3551 21.8843 14.7171 21.4728 15.4368L16.84 23.6298L16.828 23.6509C16.42 24.3654 16.2132 24.7273 15.9267 25.0009C15.6146 25.2998 15.2394 25.5165 14.8279 25.6386C14.4525 25.7428 14.032 25.7428 13.191 25.7428ZM22.2117 25.7428H27.33C28.0852 25.7428 28.4651 25.7428 28.6912 25.5934C28.9353 25.4355 29.089 25.1683 29.1028 24.8789C29.1157 24.6211 28.9344 24.3075 28.579 23.694C28.5668 23.673 28.5545 23.6519 28.542 23.6298L25.9782 19.2419L25.9489 19.1924C25.5887 18.5831 25.4069 18.2759 25.1733 18.157C24.9157 18.0254 24.6126 18.0254 24.3549 18.157C24.1198 18.279 23.9299 18.5999 23.5546 19.2471L20.9999 23.6351L20.9911 23.6498C20.6171 24.2959 20.4302 24.619 20.4438 24.8831C20.4619 25.1735 20.611 25.4397 20.8553 25.5986C21.0768 25.7428 21.4565 25.7428 22.2117 25.7428Z" fill="white"/>
</svg>
