<svg width="60" height="58" viewBox="0 0 60 58" fill="none" xmlns="http://www.w3.org/2000/svg">
<g filter="url(#filter0_d_16_1788)">
<path d="M30 56.25C45.533 56.25 58.125 43.658 58.125 28.125C58.125 12.592 45.533 0 30 0C14.467 0 1.875 12.592 1.875 28.125C1.875 43.658 14.467 56.25 30 56.25Z" fill="black"/>
</g>
<path d="M30 56.25C45.533 56.25 58.125 43.658 58.125 28.125C58.125 12.592 45.533 0 30 0C14.467 0 1.875 12.592 1.875 28.125C1.875 43.658 14.467 56.25 30 56.25Z" fill="#F7931A"/>
<path style="mix-blend-mode:soft-light" d="M30 56.25C45.533 56.25 58.125 43.658 58.125 28.125C58.125 12.592 45.533 0 30 0C14.467 0 1.875 12.592 1.875 28.125C1.875 43.658 14.467 56.25 30 56.25Z" fill="white" fill-opacity="0.6"/>
<g filter="url(#filter1_d_16_1788)">
<path d="M42.1756 21.1211C41.7961 17.1654 38.3795 15.8395 34.0687 15.4611L34.0685 9.97316L30.7297 9.97468L30.7286 15.318C29.8509 15.3166 28.955 15.3351 28.061 15.3532L28.063 9.97481L24.7237 9.97452L24.7235 15.4607C24.0004 15.4748 23.2891 15.4898 22.597 15.4884L22.5966 15.4712L17.9895 15.4701L17.9899 19.0372C17.9899 19.0372 20.4575 18.9901 20.4165 19.0351C21.7694 19.0359 22.2086 19.8211 22.3374 20.5001L22.3384 26.7512C22.4312 26.7512 22.5521 26.7559 22.6917 26.7732L22.3384 26.7744L22.3383 35.532C22.278 35.9567 22.0279 36.6355 21.0816 36.6376C21.1257 36.675 18.6546 36.6379 18.6546 36.6379L17.9908 40.6257L22.3387 40.6257C23.1468 40.6272 23.9426 40.6413 24.7225 40.6459L24.7245 46.1953L28.0615 46.1942L28.0613 40.7062C28.9776 40.7232 29.8644 40.7301 30.7302 40.7306L30.7286 46.1959L34.0674 46.1943L34.0682 40.6559C39.6846 40.3338 43.6141 38.9193 44.1022 33.6458C44.4969 29.4005 42.4995 27.5043 39.3117 26.7396C41.2495 25.754 42.4589 24.0167 42.1756 21.1211ZM37.5014 32.9882C37.5056 37.136 30.4022 36.6636 28.138 36.6658L28.1404 29.3124C30.4055 29.3138 37.5033 28.663 37.5014 32.9882ZM35.9486 22.6138C35.9485 26.3878 30.0256 25.9457 28.1416 25.9458L28.1413 19.2791C30.0253 19.279 35.9489 18.6774 35.9486 22.6138Z" fill="black"/>
</g>
<path d="M42.1756 21.1211C41.7961 17.1654 38.3795 15.8395 34.0687 15.4611L34.0685 9.97316L30.7297 9.97468L30.7286 15.318C29.8509 15.3166 28.955 15.3351 28.061 15.3532L28.063 9.97481L24.7237 9.97452L24.7235 15.4607C24.0004 15.4748 23.2891 15.4898 22.597 15.4884L22.5966 15.4712L17.9895 15.4701L17.9899 19.0372C17.9899 19.0372 20.4575 18.9901 20.4165 19.0351C21.7694 19.0359 22.2086 19.8211 22.3374 20.5001L22.3384 26.7512C22.4312 26.7512 22.5521 26.7559 22.6917 26.7732L22.3384 26.7744L22.3383 35.532C22.278 35.9567 22.0279 36.6355 21.0816 36.6376C21.1257 36.675 18.6546 36.6379 18.6546 36.6379L17.9908 40.6257L22.3387 40.6257C23.1468 40.6272 23.9426 40.6413 24.7225 40.6459L24.7245 46.1953L28.0615 46.1942L28.0613 40.7062C28.9776 40.7232 29.8644 40.7301 30.7302 40.7306L30.7286 46.1959L34.0674 46.1943L34.0682 40.6559C39.6846 40.3338 43.6141 38.9193 44.1022 33.6458C44.4969 29.4005 42.4995 27.5043 39.3117 26.7396C41.2495 25.754 42.4589 24.0167 42.1756 21.1211ZM37.5014 32.9882C37.5056 37.136 30.4022 36.6636 28.138 36.6658L28.1404 29.3124C30.4055 29.3138 37.5033 28.663 37.5014 32.9882ZM35.9486 22.6138C35.9485 26.3878 30.0256 25.9457 28.1416 25.9458L28.1413 19.2791C30.0253 19.279 35.9489 18.6774 35.9486 22.6138Z" fill="white"/>
<defs>
<filter id="filter0_d_16_1788" x="0.875" y="-0.5" width="58.25" height="58.25" filterUnits="userSpaceOnUse" color-interpolation-filters="sRGB">
<feFlood flood-opacity="0" result="BackgroundImageFix"/>
<feColorMatrix in="SourceAlpha" type="matrix" values="0 0 0 0 0 0 0 0 0 0 0 0 0 0 0 0 0 0 127 0" result="hardAlpha"/>
<feOffset dy="0.5"/>
<feGaussianBlur stdDeviation="0.5"/>
<feComposite in2="hardAlpha" operator="out"/>
<feColorMatrix type="matrix" values="0 0 0 0 0 0 0 0 0 0 0 0 0 0 0 0 0 0 0.199474 0"/>
<feBlend mode="normal" in2="BackgroundImageFix" result="effect1_dropShadow_16_1788"/>
<feBlend mode="normal" in="SourceGraphic" in2="effect1_dropShadow_16_1788" result="shape"/>
</filter>
<filter id="filter1_d_16_1788" x="16.9893" y="9.47314" width="28.1626" height="38.2227" filterUnits="userSpaceOnUse" color-interpolation-filters="sRGB">
<feFlood flood-opacity="0" result="BackgroundImageFix"/>
<feColorMatrix in="SourceAlpha" type="matrix" values="0 0 0 0 0 0 0 0 0 0 0 0 0 0 0 0 0 0 127 0" result="hardAlpha"/>
<feOffset dy="0.5"/>
<feGaussianBlur stdDeviation="0.5"/>
<feColorMatrix type="matrix" values="0 0 0 0 0 0 0 0 0 0 0 0 0 0 0 0 0 0 0.204257 0"/>
<feBlend mode="normal" in2="BackgroundImageFix" result="effect1_dropShadow_16_1788"/>
<feBlend mode="normal" in="SourceGraphic" in2="effect1_dropShadow_16_1788" result="shape"/>
</filter>
</defs>
</svg>
