<svg width="200" height="208" viewBox="0 0 200 208" fill="none" xmlns="http://www.w3.org/2000/svg">
<g clip-path="url(#clip0_184_31)">
<path d="M199.4 107.923V99.7C199.4 44.6372 154.763 0 99.7 0C44.6372 0 0 44.6372 0 99.7V107.923C0 162.986 44.6372 207.623 99.7 207.623C154.763 207.623 199.4 162.986 199.4 107.923Z" fill="#61DFFF"/>
<mask id="mask0_184_31" style="mask-type:luminance" maskUnits="userSpaceOnUse" x="49" y="52" width="101" height="104">
<path d="M149.241 52.0132H49.7002V155.99H149.241V52.0132Z" fill="white"/>
</mask>
<g mask="url(#mask0_184_31)">
<path d="M132.369 155.99H49.7002V68.8853H68.6149V139.109H132.369V155.981V155.99Z" fill="#121212"/>
<path d="M132.369 85.7573C141.687 85.7573 149.241 78.2035 149.241 68.8853C149.241 59.5671 141.687 52.0132 132.369 52.0132C123.05 52.0132 115.497 59.5671 115.497 68.8853C115.497 78.2035 123.05 85.7573 132.369 85.7573Z" fill="#121212"/>
</g>
</g>
<defs>
<clipPath id="clip0_184_31">
<rect width="200" height="208" fill="white"/>
</clipPath>
</defs>
</svg>
