<svg width="37" height="38" viewBox="0 0 37 38" fill="none" xmlns="http://www.w3.org/2000/svg">
<path d="M18.4244 37.5387C28.5897 37.5387 36.8303 29.2941 36.8303 19.1239C36.8303 8.95368 28.5897 0.709106 18.4244 0.709106C8.25915 0.709106 0.0185547 8.95368 0.0185547 19.1239C0.0185547 29.2941 8.25915 37.5387 18.4244 37.5387Z" fill="#FD0026"/>
<path d="M10.6419 25.8321C9.14968 25.8321 7.92711 25.4838 6.97411 24.7883C6.03372 24.0801 5.56348 23.0741 5.56348 21.7704C5.56348 21.4968 5.59482 21.1611 5.65751 20.7633C5.82053 19.8689 6.05244 18.7945 6.35346 17.5402C7.20612 14.1235 9.40673 12.4156 12.9554 12.4156C13.9209 12.4156 14.7861 12.5767 15.551 12.8997C16.316 13.2112 16.9178 13.6826 17.3567 14.3161C17.7955 14.9379 18.015 15.683 18.015 16.5521C18.015 16.8131 17.9837 17.1425 17.921 17.5402C17.7328 18.6451 17.5071 19.7205 17.2438 20.7633C16.8049 22.4659 16.0463 23.7392 14.9679 24.5841C13.8896 25.4154 12.4476 25.8321 10.6419 25.8321ZM10.9052 23.1488C11.6074 23.1488 12.2031 22.9436 12.6921 22.5343C13.1936 22.1239 13.551 21.4968 13.7642 20.6518C14.0526 19.4838 14.272 18.4652 14.4225 17.596C14.4727 17.335 14.4977 17.0677 14.4977 16.7942C14.4977 15.664 13.9021 15.0989 12.7108 15.0989C12.0087 15.0989 11.4068 15.3041 10.9052 15.7135C10.4162 16.1239 10.065 16.751 9.85194 17.596C9.62623 18.4283 9.40053 19.4469 9.17482 20.6518C9.12465 20.9001 9.09951 21.1611 9.09951 21.4347C9.09951 22.5774 9.70143 23.1488 10.9052 23.1488Z" fill="white"/>
<path d="M18.8714 25.6458C18.7334 25.6458 18.6268 25.6016 18.5515 25.5154C18.4888 25.4154 18.47 25.3039 18.4952 25.1797L21.0907 13.067C21.1158 12.9312 21.1848 12.8186 21.2977 12.7323C21.4105 12.645 21.5297 12.6019 21.6551 12.6019H26.6582C28.05 12.6019 29.166 12.887 30.0062 13.4584C30.8589 14.0298 31.2853 14.8558 31.2853 15.9376C31.2853 16.248 31.2476 16.571 31.1724 16.9057C30.8589 18.3346 30.2256 19.3901 29.2727 20.0741C28.3322 20.757 27.0406 21.099 25.398 21.099H22.8588L21.9935 25.1797C21.9685 25.3165 21.8995 25.428 21.7867 25.5154C21.6738 25.6016 21.5547 25.6458 21.4293 25.6458H18.8714ZM25.5297 18.5272C26.0563 18.5272 26.514 18.3841 26.9028 18.0989C27.304 17.8127 27.5673 17.4034 27.6927 16.8688C27.7303 16.6573 27.7491 16.4711 27.7491 16.3101C27.7491 15.9491 27.6426 15.6766 27.4294 15.4904C27.2163 15.2915 26.8526 15.1915 26.3385 15.1915H24.0814L23.3666 18.5272H25.5297Z" fill="white"/>
</svg>
