<svg width="83" height="82" viewBox="0 0 83 82" fill="none" xmlns="http://www.w3.org/2000/svg">
<path d="M10.3 31.3C7.1 28.3 4.9 24.4 4.9 19.8V19.3C5.2 11.5 11.6 5.1 19.4 4.9H69.3C70.6 5 71.6 5.9 71.6 7.2V49.5C72.7 49.7 73.3 49.9 74.4 50.2C75.3 50.5 76.5 51.2 76.5 51.2V7.2C76.4 3.2 73.2 0 69.2 0H19.4C8.6 0.2 0 9 0 19.8C0 26.1 2.9 31.5 7.5 35.2C7.8 35.5 8.1 35.8 9 35.8C10.5 35.8 11.5 34.6 11.4 33.4C11.4 32.3 11 31.9 10.3 31.3Z" fill="white"/>
<path d="M68 52.3001H28.9C26.3 52.3001 24.2 54.4001 24.2 57.1001V62.7001C24.3 65.3001 26.5 67.5001 29.1 67.5001H32V62.7001H29.1V57.2001C29.1 57.2001 29.8001 57.2001 30.7001 57.2001C35.6001 57.2001 39.3 61.8001 39.3 66.7001C39.3 71.1001 35.3001 76.6001 28.7001 76.2001C22.8001 75.8001 19.6 70.6001 19.6 66.7001V19.0001C19.6 16.9001 17.8 15.1001 15.7 15.1001H11.8V20.0001H14.7V66.8001C14.5 76.3001 21.5001 81.1001 28.7001 81.1001L68.1 81.2001C76 81.2001 82.5 74.8001 82.5 66.8001C82.4 58.7001 76 52.3001 68 52.3001ZM77.5 67.0001C77.3 72.1001 73.1 76.2001 68 76.2001L40.6 76.1001C42.8 73.6001 44.1 70.3001 44.1 66.7001C44.1 61.1001 40.8 57.2001 40.8 57.2001H68.1C73.3 57.2001 77.6 61.5001 77.6 66.7001L77.5 67.0001Z" fill="white"/>
<path d="M57.5 20.7999H28V15.8999H57.5C58.8 15.8999 59.9 16.9999 59.9 18.2999C59.9 19.6999 58.9 20.7999 57.5 20.7999Z" fill="white"/>
<path d="M57.5 43.7999H28V38.8999H57.5C58.8 38.8999 59.9 39.9999 59.9 41.2999C59.9 42.6999 58.9 43.7999 57.5 43.7999Z" fill="white"/>
<path d="M62.7 32.2999H28V27.3999H62.7C64 27.3999 65.1 28.4999 65.1 29.7999C65.1 31.1999 64 32.2999 62.7 32.2999Z" fill="white"/>
</svg>
